<svg width="280" height="230" viewBox="0 0 248 76" fill="none" xmlns="http://www.w3.org/2000/svg">
<path d="M62.1818 27.6364C58.9 27.6364 56.05 26.6576 53.6318 24.7C51.2136 22.7424 49.6015 20.2667 48.7955 17.2727H27.1182C26.4848 19.6909 25.2902 21.778 23.5341 23.5341C21.778 25.2902 19.6909 26.4848 17.2727 27.1182V48.7955C20.2667 49.6015 22.7424 51.2136 24.7 53.6318C26.6576 56.05 27.6364 58.9 27.6364 62.1818C27.6364 65.9818 26.2833 69.2348 23.5773 71.9409C20.8712 74.647 17.6182 76 13.8182 76C10.0182 76 6.76515 74.647 4.05909 71.9409C1.35303 69.2348 0 65.9818 0 62.1818C0 58.9 0.978788 56.05 2.93636 53.6318C4.89394 51.2136 7.3697 49.6015 10.3636 48.7955V27.1182C7.3697 26.3121 4.89394 24.7 2.93636 22.2818C0.978788 19.8636 0 17.0424 0 13.8182C0 10.0182 1.35303 6.76515 4.05909 4.05909C6.76515 1.35303 10.0182 0 13.8182 0C17.0424 0 19.8636 0.978788 22.2818 2.93636C24.7 4.89394 26.3121 7.3697 27.1182 10.3636H48.7955C49.6015 7.3697 51.2136 4.89394 53.6318 2.93636C56.05 0.978788 58.9 0 62.1818 0C65.9818 0 69.2348 1.35303 71.9409 4.05909C74.647 6.76515 76 10.0182 76 13.8182C76 17.6182 74.647 20.8712 71.9409 23.5773C69.2348 26.2833 65.9818 27.6364 62.1818 27.6364ZM62.1818 76C58.3818 76 55.1288 74.647 52.4227 71.9409C49.7167 69.2348 48.3636 65.9818 48.3636 62.1818C48.3636 58.3818 49.7167 55.1288 52.4227 52.4227C55.1288 49.7167 58.3818 48.3636 62.1818 48.3636C65.9818 48.3636 69.2348 49.7167 71.9409 52.4227C74.647 55.1288 76 58.3818 76 62.1818C76 65.9818 74.647 69.2348 71.9409 71.9409C69.2348 74.647 65.9818 76 62.1818 76ZM62.1818 20.7273C64.0818 20.7273 65.7083 20.0508 67.0614 18.6977C68.4144 17.3447 69.0909 15.7182 69.0909 13.8182C69.0909 11.9182 68.4144 10.2917 67.0614 8.93864C65.7083 7.58561 64.0818 6.90909 62.1818 6.90909C60.2818 6.90909 58.6553 7.58561 57.3023 8.93864C55.9492 10.2917 55.2727 11.9182 55.2727 13.8182C55.2727 15.7182 55.9492 17.3447 57.3023 18.6977C58.6553 20.0508 60.2818 20.7273 62.1818 20.7273ZM13.8182 20.7273C15.7182 20.7273 17.3447 20.0508 18.6977 18.6977C20.0508 17.3447 20.7273 15.7182 20.7273 13.8182C20.7273 11.9182 20.0508 10.2917 18.6977 8.93864C17.3447 7.58561 15.7182 6.90909 13.8182 6.90909C11.9758 6.90909 10.3636 7.58561 8.98182 8.93864C7.6 10.2917 6.90909 11.9182 6.90909 13.8182C6.90909 15.7182 7.6 17.3447 8.98182 18.6977C10.3636 20.0508 11.9758 20.7273 13.8182 20.7273ZM62.1818 69.0909C64.0818 69.0909 65.7083 68.4 67.0614 67.0182C68.4144 65.6364 69.0909 64.0242 69.0909 62.1818C69.0909 60.2818 68.4144 58.6553 67.0614 57.3023C65.7083 55.9492 64.0818 55.2727 62.1818 55.2727C60.2818 55.2727 58.6553 55.9492 57.3023 57.3023C55.9492 58.6553 55.2727 60.2818 55.2727 62.1818C55.2727 64.0242 55.9492 65.6364 57.3023 67.0182C58.6553 68.4 60.2818 69.0909 62.1818 69.0909ZM13.8182 69.0909C15.7182 69.0909 17.3447 68.4 18.6977 67.0182C20.0508 65.6364 20.7273 64.0242 20.7273 62.1818C20.7273 60.2818 20.0508 58.6553 18.6977 57.3023C17.3447 55.9492 15.7182 55.2727 13.8182 55.2727C11.9758 55.2727 10.3636 55.9492 8.98182 57.3023C7.6 58.6553 6.90909 60.2818 6.90909 62.1818C6.90909 64.0242 7.6 65.6364 8.98182 67.0182C10.3636 68.4 11.9758 69.0909 13.8182 69.0909ZM62.1818 20.7273C60.2818 20.7273 58.6553 20.0508 57.3023 18.6977C55.9492 17.3447 55.2727 15.7182 55.2727 13.8182C55.2727 11.9182 55.9492 10.2917 57.3023 8.93864C58.6553 7.58561 60.2818 6.90909 62.1818 6.90909C64.0818 6.90909 65.7083 7.58561 67.0614 8.93864C68.4144 10.2917 69.0909 11.9182 69.0909 13.8182C69.0909 15.7182 68.4144 17.3447 67.0614 18.6977C65.7083 20.0508 64.0818 20.7273 62.1818 20.7273ZM13.8182 20.7273C11.9758 20.7273 10.3636 20.0508 8.98182 18.6977C7.6 17.3447 6.90909 15.7182 6.90909 13.8182C6.90909 11.9182 7.6 10.2917 8.98182 8.93864C10.3636 7.58561 11.9758 6.90909 13.8182 6.90909C15.7182 6.90909 17.3447 7.58561 18.6977 8.93864C20.0508 10.2917 20.7273 11.9182 20.7273 13.8182C20.7273 15.7182 20.0508 17.3447 18.6977 18.6977C17.3447 20.0508 15.7182 20.7273 13.8182 20.7273ZM62.1818 69.0909C60.2818 69.0909 58.6553 68.4 57.3023 67.0182C55.9492 65.6364 55.2727 64.0242 55.2727 62.1818C55.2727 60.2818 55.9492 58.6553 57.3023 57.3023C58.6553 55.9492 60.2818 55.2727 62.1818 55.2727C64.0818 55.2727 65.7083 55.9492 67.0614 57.3023C68.4144 58.6553 69.0909 60.2818 69.0909 62.1818C69.0909 64.0242 68.4144 65.6364 67.0614 67.0182C65.7083 68.4 64.0818 69.0909 62.1818 69.0909ZM13.8182 69.0909C11.9758 69.0909 10.3636 68.4 8.98182 67.0182C7.6 65.6364 6.90909 64.0242 6.90909 62.1818C6.90909 60.2818 7.6 58.6553 8.98182 57.3023C10.3636 55.9492 11.9758 55.2727 13.8182 55.2727C15.7182 55.2727 17.3447 55.9492 18.6977 57.3023C20.0508 58.6553 20.7273 60.2818 20.7273 62.1818C20.7273 64.0242 20.0508 65.6364 18.6977 67.0182C17.3447 68.4 15.7182 69.0909 13.8182 69.0909Z" fill="#2C4E80" fill-opacity="0.6"/>
<path d="M110.304 56.36C108.936 56.36 107.664 56.18 106.488 55.82C105.336 55.46 104.28 54.92 103.32 54.2C102.384 53.456 101.544 52.544 100.8 51.464L103.464 48.404C104.64 50.084 105.768 51.248 106.848 51.896C107.928 52.544 109.212 52.868 110.7 52.868C111.612 52.868 112.44 52.724 113.184 52.436C113.928 52.148 114.516 51.752 114.948 51.248C115.38 50.744 115.596 50.168 115.596 49.52C115.596 49.088 115.524 48.68 115.38 48.296C115.236 47.912 115.008 47.564 114.696 47.252C114.408 46.94 114.024 46.652 113.544 46.388C113.088 46.124 112.548 45.896 111.924 45.704C111.3 45.488 110.58 45.308 109.764 45.164C108.468 44.9 107.34 44.552 106.38 44.12C105.42 43.688 104.616 43.148 103.968 42.5C103.32 41.852 102.84 41.12 102.528 40.304C102.216 39.464 102.06 38.528 102.06 37.496C102.06 36.488 102.276 35.552 102.708 34.688C103.164 33.824 103.776 33.08 104.544 32.456C105.336 31.808 106.26 31.316 107.316 30.98C108.372 30.62 109.512 30.44 110.736 30.44C112.032 30.44 113.22 30.608 114.3 30.944C115.38 31.28 116.34 31.784 117.18 32.456C118.02 33.104 118.716 33.908 119.268 34.868L116.532 37.568C116.052 36.776 115.512 36.116 114.912 35.588C114.312 35.036 113.652 34.628 112.932 34.364C112.212 34.076 111.444 33.932 110.628 33.932C109.692 33.932 108.876 34.076 108.18 34.364C107.484 34.652 106.932 35.06 106.524 35.588C106.14 36.092 105.948 36.692 105.948 37.388C105.948 37.892 106.044 38.36 106.236 38.792C106.428 39.2 106.716 39.572 107.1 39.908C107.508 40.22 108.048 40.508 108.72 40.772C109.392 41.012 110.196 41.228 111.132 41.42C112.452 41.708 113.628 42.08 114.66 42.536C115.692 42.968 116.568 43.484 117.288 44.084C118.008 44.684 118.548 45.356 118.908 46.1C119.292 46.844 119.484 47.648 119.484 48.512C119.484 50.12 119.112 51.512 118.368 52.688C117.624 53.864 116.568 54.776 115.2 55.424C113.832 56.048 112.2 56.36 110.304 56.36ZM124.057 56V29.36H127.765V40.988L127.117 41.42C127.357 40.58 127.825 39.812 128.521 39.116C129.217 38.396 130.045 37.82 131.005 37.388C131.965 36.932 132.949 36.704 133.957 36.704C135.397 36.704 136.597 36.992 137.557 37.568C138.517 38.12 139.237 38.972 139.717 40.124C140.197 41.276 140.437 42.728 140.437 44.48V56H136.729V44.732C136.729 43.652 136.585 42.764 136.297 42.068C136.009 41.348 135.565 40.832 134.965 40.52C134.365 40.184 133.621 40.04 132.733 40.088C132.013 40.088 131.353 40.208 130.753 40.448C130.153 40.664 129.625 40.976 129.169 41.384C128.737 41.792 128.389 42.272 128.125 42.824C127.885 43.352 127.765 43.928 127.765 44.552V56H125.929C125.617 56 125.305 56 124.993 56C124.681 56 124.369 56 124.057 56ZM153.963 56.36C152.115 56.36 150.459 55.94 148.995 55.1C147.555 54.236 146.415 53.072 145.575 51.608C144.735 50.12 144.315 48.428 144.315 46.532C144.315 44.636 144.735 42.956 145.575 41.492C146.415 40.004 147.555 38.84 148.995 38C150.459 37.136 152.115 36.704 153.963 36.704C155.787 36.704 157.419 37.136 158.859 38C160.323 38.84 161.475 40.004 162.315 41.492C163.155 42.956 163.575 44.636 163.575 46.532C163.575 48.428 163.155 50.12 162.315 51.608C161.475 53.072 160.323 54.236 158.859 55.1C157.419 55.94 155.787 56.36 153.963 56.36ZM153.963 52.976C155.091 52.976 156.099 52.7 156.987 52.148C157.875 51.572 158.571 50.804 159.075 49.844C159.579 48.86 159.819 47.756 159.795 46.532C159.819 45.284 159.579 44.18 159.075 43.22C158.571 42.236 157.875 41.468 156.987 40.916C156.099 40.364 155.091 40.088 153.963 40.088C152.835 40.088 151.815 40.376 150.903 40.952C150.015 41.504 149.319 42.272 148.815 43.256C148.311 44.216 148.071 45.308 148.095 46.532C148.071 47.756 148.311 48.86 148.815 49.844C149.319 50.804 150.015 51.572 150.903 52.148C151.815 52.7 152.835 52.976 153.963 52.976ZM167.615 56V37.1H171.359V43.04L170.999 41.6C171.263 40.688 171.707 39.86 172.331 39.116C172.979 38.372 173.711 37.784 174.527 37.352C175.367 36.92 176.231 36.704 177.119 36.704C177.527 36.704 177.911 36.74 178.271 36.812C178.655 36.884 178.955 36.968 179.171 37.064L178.199 41.096C177.911 40.976 177.587 40.88 177.227 40.808C176.891 40.712 176.555 40.664 176.219 40.664C175.571 40.664 174.947 40.796 174.347 41.06C173.771 41.3 173.255 41.648 172.799 42.104C172.367 42.536 172.019 43.052 171.755 43.652C171.491 44.228 171.359 44.864 171.359 45.56V56H167.615ZM185.178 56V32.276H188.886V56H185.178ZM181.254 40.7V37.1H193.278V40.7H181.254ZM198.167 56.396C197.375 56.396 196.763 56.168 196.331 55.712C195.899 55.232 195.683 54.56 195.683 53.696C195.683 52.904 195.911 52.256 196.367 51.752C196.823 51.248 197.423 50.996 198.167 50.996C198.959 50.996 199.571 51.236 200.003 51.716C200.435 52.172 200.651 52.832 200.651 53.696C200.651 54.488 200.423 55.136 199.967 55.64C199.511 56.144 198.911 56.396 198.167 56.396ZM211.47 56.36C210.126 56.36 208.95 56.048 207.942 55.424C206.958 54.8 206.19 53.924 205.638 52.796C205.11 51.668 204.846 50.324 204.846 48.764V37.1H208.554V47.756C208.554 48.86 208.722 49.82 209.058 50.636C209.418 51.428 209.922 52.04 210.57 52.472C211.242 52.904 212.046 53.12 212.982 53.12C213.678 53.12 214.314 53.012 214.89 52.796C215.466 52.556 215.958 52.232 216.366 51.824C216.798 51.416 217.134 50.924 217.374 50.348C217.614 49.772 217.734 49.148 217.734 48.476V37.1H221.442V56H217.734V52.04L218.382 51.608C218.094 52.496 217.602 53.3 216.906 54.02C216.234 54.74 215.43 55.316 214.494 55.748C213.558 56.156 212.55 56.36 211.47 56.36ZM226.643 56V37.1H230.387V43.04L230.027 41.6C230.291 40.688 230.735 39.86 231.359 39.116C232.007 38.372 232.739 37.784 233.555 37.352C234.395 36.92 235.259 36.704 236.147 36.704C236.555 36.704 236.939 36.74 237.299 36.812C237.683 36.884 237.983 36.968 238.199 37.064L237.227 41.096C236.939 40.976 236.615 40.88 236.255 40.808C235.919 40.712 235.583 40.664 235.247 40.664C234.599 40.664 233.975 40.796 233.375 41.06C232.799 41.3 232.283 41.648 231.827 42.104C231.395 42.536 231.047 43.052 230.783 43.652C230.519 44.228 230.387 44.864 230.387 45.56V56H226.643ZM241.234 56V29.36H244.942V56H241.234Z" fill="#2C4E80" fill-opacity="0.6"/>
</svg>
