<!DOCTYPE svg PUBLIC "-//W3C//DTD SVG 1.1//EN" "http://www.w3.org/Graphics/SVG/1.1/DTD/svg11.dtd">

<!-- Uploaded to: SVG Repo, www.svgrepo.com, Transformed by: SVG Repo Mixer Tools -->
<svg fill="#2C4E80" height="30" width="25" version="1.1" id="Layer_1" xmlns="http://www.w3.org/2000/svg" xmlns:xlink="http://www.w3.org/1999/xlink" viewBox="0 0 330 330" xml:space="preserve" stroke="#2C4E80">

<g id="SVGRepo_bgCarrier" stroke-width="0"/>

<g id="SVGRepo_tracerCarrier" stroke-linecap="round" stroke-linejoin="round"/>

<g id="SVGRepo_iconCarrier"> <g id="XMLID_509_"> <path id="XMLID_510_" d="M65,330h200c8.284,0,15-6.716,15-15V145c0-8.284-6.716-15-15-15h-15V85c0-46.869-38.131-85-85-85 S80,38.131,80,85v45H65c-8.284,0-15,6.716-15,15v170C50,323.284,56.716,330,65,330z M180,234.986V255c0,8.284-6.716,15-15,15 s-15-6.716-15-15v-20.014c-6.068-4.565-10-11.824-10-19.986c0-13.785,11.215-25,25-25s25,11.215,25,25 C190,223.162,186.068,230.421,180,234.986z M110,85c0-30.327,24.673-55,55-55s55,24.673,55,55v45H110V85z"/> </g> </g>

</svg>