<svg width="190" height="56" viewBox="0 0 199 56" fill="none" xmlns="http://www.w3.org/2000/svg">
<path d="M76.048 40.32C74.832 40.32 73.7013 40.16 72.656 39.84C71.632 39.52 70.6933 39.04 69.84 38.4C69.008 37.7387 68.2613 36.928 67.6 35.968L69.968 33.248C71.0133 34.7413 72.016 35.776 72.976 36.352C73.936 36.928 75.0773 37.216 76.4 37.216C77.2107 37.216 77.9467 37.088 78.608 36.832C79.2693 36.576 79.792 36.224 80.176 35.776C80.56 35.328 80.752 34.816 80.752 34.24C80.752 33.856 80.688 33.4933 80.56 33.152C80.432 32.8107 80.2293 32.5013 79.952 32.224C79.696 31.9467 79.3547 31.6907 78.928 31.456C78.5227 31.2213 78.0427 31.0187 77.488 30.848C76.9333 30.656 76.2933 30.496 75.568 30.368C74.416 30.1333 73.4133 29.824 72.56 29.44C71.7067 29.056 70.992 28.576 70.416 28C69.84 27.424 69.4133 26.7733 69.136 26.048C68.8587 25.3013 68.72 24.4693 68.72 23.552C68.72 22.656 68.912 21.824 69.296 21.056C69.7013 20.288 70.2453 19.6267 70.928 19.072C71.632 18.496 72.4533 18.0587 73.392 17.76C74.3307 17.44 75.344 17.28 76.432 17.28C77.584 17.28 78.64 17.4293 79.6 17.728C80.56 18.0267 81.4133 18.4747 82.16 19.072C82.9067 19.648 83.5253 20.3627 84.016 21.216L81.584 23.616C81.1573 22.912 80.6773 22.3253 80.144 21.856C79.6107 21.3653 79.024 21.0027 78.384 20.768C77.744 20.512 77.0613 20.384 76.336 20.384C75.504 20.384 74.7787 20.512 74.16 20.768C73.5413 21.024 73.0507 21.3867 72.688 21.856C72.3467 22.304 72.176 22.8373 72.176 23.456C72.176 23.904 72.2613 24.32 72.432 24.704C72.6027 25.0667 72.8587 25.3973 73.2 25.696C73.5627 25.9733 74.0427 26.2293 74.64 26.464C75.2373 26.6773 75.952 26.8693 76.784 27.04C77.9573 27.296 79.0027 27.6267 79.92 28.032C80.8373 28.416 81.616 28.8747 82.256 29.408C82.896 29.9413 83.376 30.5387 83.696 31.2C84.0373 31.8613 84.208 32.576 84.208 33.344C84.208 34.7733 83.8773 36.0107 83.216 37.056C82.5547 38.1013 81.616 38.912 80.4 39.488C79.184 40.0427 77.7333 40.32 76.048 40.32ZM88.2728 40V16.32H91.5688V26.656L90.9928 27.04C91.2061 26.2933 91.6221 25.6107 92.2408 24.992C92.8594 24.352 93.5954 23.84 94.4488 23.456C95.3021 23.0507 96.1768 22.848 97.0728 22.848C98.3528 22.848 99.4194 23.104 100.273 23.616C101.126 24.1067 101.766 24.864 102.193 25.888C102.619 26.912 102.833 28.2027 102.833 29.76V40H99.5368V29.984C99.5368 29.024 99.4088 28.2347 99.1528 27.616C98.8968 26.976 98.5021 26.5173 97.9688 26.24C97.4354 25.9413 96.7741 25.8133 95.9848 25.856C95.3448 25.856 94.7581 25.9627 94.2248 26.176C93.6914 26.368 93.2221 26.6453 92.8168 27.008C92.4328 27.3707 92.1234 27.7973 91.8888 28.288C91.6754 28.7573 91.5688 29.2693 91.5688 29.824V40H89.9368C89.6594 40 89.3821 40 89.1048 40C88.8274 40 88.5501 40 88.2728 40ZM114.856 40.32C113.213 40.32 111.741 39.9467 110.44 39.2C109.16 38.432 108.147 37.3973 107.4 36.096C106.653 34.7733 106.28 33.2693 106.28 31.584C106.28 29.8987 106.653 28.4053 107.4 27.104C108.147 25.7813 109.16 24.7467 110.44 24C111.741 23.232 113.213 22.848 114.856 22.848C116.477 22.848 117.928 23.232 119.208 24C120.509 24.7467 121.533 25.7813 122.28 27.104C123.027 28.4053 123.4 29.8987 123.4 31.584C123.4 33.2693 123.027 34.7733 122.28 36.096C121.533 37.3973 120.509 38.432 119.208 39.2C117.928 39.9467 116.477 40.32 114.856 40.32ZM114.856 37.312C115.859 37.312 116.755 37.0667 117.544 36.576C118.333 36.064 118.952 35.3813 119.4 34.528C119.848 33.6533 120.061 32.672 120.04 31.584C120.061 30.4747 119.848 29.4933 119.4 28.64C118.952 27.7653 118.333 27.0827 117.544 26.592C116.755 26.1013 115.859 25.856 114.856 25.856C113.853 25.856 112.947 26.112 112.136 26.624C111.347 27.1147 110.728 27.7973 110.28 28.672C109.832 29.5253 109.619 30.496 109.64 31.584C109.619 32.672 109.832 33.6533 110.28 34.528C110.728 35.3813 111.347 36.064 112.136 36.576C112.947 37.0667 113.853 37.312 114.856 37.312ZM126.992 40V23.2H130.32V28.48L130 27.2C130.234 26.3893 130.629 25.6533 131.184 24.992C131.76 24.3307 132.41 23.808 133.135 23.424C133.882 23.04 134.65 22.848 135.44 22.848C135.802 22.848 136.144 22.88 136.464 22.944C136.805 23.008 137.072 23.0827 137.264 23.168L136.4 26.752C136.144 26.6453 135.856 26.56 135.536 26.496C135.237 26.4107 134.938 26.368 134.64 26.368C134.064 26.368 133.509 26.4853 132.976 26.72C132.464 26.9333 132.005 27.2427 131.6 27.648C131.216 28.032 130.906 28.4907 130.672 29.024C130.437 29.536 130.32 30.1013 130.32 30.72V40H126.992ZM142.603 40V18.912H145.899V40H142.603ZM139.115 26.4V23.2H149.803V26.4H139.115ZM154.148 40.352C153.444 40.352 152.9 40.1493 152.516 39.744C152.132 39.3173 151.94 38.72 151.94 37.952C151.94 37.248 152.143 36.672 152.548 36.224C152.953 35.776 153.487 35.552 154.148 35.552C154.852 35.552 155.396 35.7653 155.78 36.192C156.164 36.5973 156.356 37.184 156.356 37.952C156.356 38.656 156.153 39.232 155.748 39.68C155.343 40.128 154.809 40.352 154.148 40.352ZM165.973 40.32C164.779 40.32 163.733 40.0427 162.837 39.488C161.963 38.9333 161.28 38.1547 160.789 37.152C160.32 36.1493 160.085 34.9547 160.085 33.568V23.2H163.381V32.672C163.381 33.6533 163.531 34.5067 163.829 35.232C164.149 35.936 164.597 36.48 165.173 36.864C165.771 37.248 166.485 37.44 167.317 37.44C167.936 37.44 168.501 37.344 169.013 37.152C169.525 36.9387 169.963 36.6507 170.325 36.288C170.709 35.9253 171.008 35.488 171.221 34.976C171.435 34.464 171.541 33.9093 171.541 33.312V23.2H174.837V40H171.541V36.48L172.117 36.096C171.861 36.8853 171.424 37.6 170.805 38.24C170.208 38.88 169.493 39.392 168.661 39.776C167.829 40.1387 166.933 40.32 165.973 40.32ZM179.46 40V23.2H182.788V28.48L182.468 27.2C182.703 26.3893 183.098 25.6533 183.652 24.992C184.228 24.3307 184.879 23.808 185.604 23.424C186.351 23.04 187.119 22.848 187.908 22.848C188.271 22.848 188.612 22.88 188.932 22.944C189.274 23.008 189.54 23.0827 189.732 23.168L188.868 26.752C188.612 26.6453 188.324 26.56 188.004 26.496C187.706 26.4107 187.407 26.368 187.108 26.368C186.532 26.368 185.978 26.4853 185.444 26.72C184.932 26.9333 184.474 27.2427 184.068 27.648C183.684 28.032 183.375 28.4907 183.14 29.024C182.906 29.536 182.788 30.1013 182.788 30.72V40H179.46ZM192.431 40V16.32H195.727V40H192.431Z" fill="#2C4E80"/>
<path d="M45.8182 20.3636C43.4 20.3636 41.3 19.6424 39.5182 18.2C37.7364 16.7576 36.5485 14.9333 35.9545 12.7273H19.9818C19.5152 14.5091 18.6348 16.047 17.3409 17.3409C16.047 18.6348 14.5091 19.5152 12.7273 19.9818V35.9545C14.9333 36.5485 16.7576 37.7364 18.2 39.5182C19.6424 41.3 20.3636 43.4 20.3636 45.8182C20.3636 48.6182 19.3667 51.0152 17.3727 53.0091C15.3788 55.003 12.9818 56 10.1818 56C7.38182 56 4.98485 55.003 2.99091 53.0091C0.99697 51.0152 0 48.6182 0 45.8182C0 43.4 0.721212 41.3 2.16364 39.5182C3.60606 37.7364 5.4303 36.5485 7.63636 35.9545V19.9818C5.4303 19.3879 3.60606 18.2 2.16364 16.4182C0.721212 14.6364 0 12.5576 0 10.1818C0 7.38182 0.99697 4.98485 2.99091 2.99091C4.98485 0.99697 7.38182 0 10.1818 0C12.5576 0 14.6364 0.721212 16.4182 2.16364C18.2 3.60606 19.3879 5.4303 19.9818 7.63636H35.9545C36.5485 5.4303 37.7364 3.60606 39.5182 2.16364C41.3 0.721212 43.4 0 45.8182 0C48.6182 0 51.0152 0.99697 53.0091 2.99091C55.003 4.98485 56 7.38182 56 10.1818C56 12.9818 55.003 15.3788 53.0091 17.3727C51.0152 19.3667 48.6182 20.3636 45.8182 20.3636ZM45.8182 56C43.0182 56 40.6212 55.003 38.6273 53.0091C36.6333 51.0152 35.6364 48.6182 35.6364 45.8182C35.6364 43.0182 36.6333 40.6212 38.6273 38.6273C40.6212 36.6333 43.0182 35.6364 45.8182 35.6364C48.6182 35.6364 51.0152 36.6333 53.0091 38.6273C55.003 40.6212 56 43.0182 56 45.8182C56 48.6182 55.003 51.0152 53.0091 53.0091C51.0152 55.003 48.6182 56 45.8182 56ZM45.8182 15.2727C47.2182 15.2727 48.4167 14.7742 49.4136 13.7773C50.4106 12.7803 50.9091 11.5818 50.9091 10.1818C50.9091 8.78182 50.4106 7.58333 49.4136 6.58636C48.4167 5.58939 47.2182 5.09091 45.8182 5.09091C44.4182 5.09091 43.2197 5.58939 42.2227 6.58636C41.2258 7.58333 40.7273 8.78182 40.7273 10.1818C40.7273 11.5818 41.2258 12.7803 42.2227 13.7773C43.2197 14.7742 44.4182 15.2727 45.8182 15.2727ZM10.1818 15.2727C11.5818 15.2727 12.7803 14.7742 13.7773 13.7773C14.7742 12.7803 15.2727 11.5818 15.2727 10.1818C15.2727 8.78182 14.7742 7.58333 13.7773 6.58636C12.7803 5.58939 11.5818 5.09091 10.1818 5.09091C8.82424 5.09091 7.63636 5.58939 6.61818 6.58636C5.6 7.58333 5.09091 8.78182 5.09091 10.1818C5.09091 11.5818 5.6 12.7803 6.61818 13.7773C7.63636 14.7742 8.82424 15.2727 10.1818 15.2727ZM45.8182 50.9091C47.2182 50.9091 48.4167 50.4 49.4136 49.3818C50.4106 48.3636 50.9091 47.1758 50.9091 45.8182C50.9091 44.4182 50.4106 43.2197 49.4136 42.2227C48.4167 41.2258 47.2182 40.7273 45.8182 40.7273C44.4182 40.7273 43.2197 41.2258 42.2227 42.2227C41.2258 43.2197 40.7273 44.4182 40.7273 45.8182C40.7273 47.1758 41.2258 48.3636 42.2227 49.3818C43.2197 50.4 44.4182 50.9091 45.8182 50.9091ZM10.1818 50.9091C11.5818 50.9091 12.7803 50.4 13.7773 49.3818C14.7742 48.3636 15.2727 47.1758 15.2727 45.8182C15.2727 44.4182 14.7742 43.2197 13.7773 42.2227C12.7803 41.2258 11.5818 40.7273 10.1818 40.7273C8.82424 40.7273 7.63636 41.2258 6.61818 42.2227C5.6 43.2197 5.09091 44.4182 5.09091 45.8182C5.09091 47.1758 5.6 48.3636 6.61818 49.3818C7.63636 50.4 8.82424 50.9091 10.1818 50.9091ZM45.8182 15.2727C44.4182 15.2727 43.2197 14.7742 42.2227 13.7773C41.2258 12.7803 40.7273 11.5818 40.7273 10.1818C40.7273 8.78182 41.2258 7.58333 42.2227 6.58636C43.2197 5.58939 44.4182 5.09091 45.8182 5.09091C47.2182 5.09091 48.4167 5.58939 49.4136 6.58636C50.4106 7.58333 50.9091 8.78182 50.9091 10.1818C50.9091 11.5818 50.4106 12.7803 49.4136 13.7773C48.4167 14.7742 47.2182 15.2727 45.8182 15.2727ZM10.1818 15.2727C8.82424 15.2727 7.63636 14.7742 6.61818 13.7773C5.6 12.7803 5.09091 11.5818 5.09091 10.1818C5.09091 8.78182 5.6 7.58333 6.61818 6.58636C7.63636 5.58939 8.82424 5.09091 10.1818 5.09091C11.5818 5.09091 12.7803 5.58939 13.7773 6.58636C14.7742 7.58333 15.2727 8.78182 15.2727 10.1818C15.2727 11.5818 14.7742 12.7803 13.7773 13.7773C12.7803 14.7742 11.5818 15.2727 10.1818 15.2727ZM45.8182 50.9091C44.4182 50.9091 43.2197 50.4 42.2227 49.3818C41.2258 48.3636 40.7273 47.1758 40.7273 45.8182C40.7273 44.4182 41.2258 43.2197 42.2227 42.2227C43.2197 41.2258 44.4182 40.7273 45.8182 40.7273C47.2182 40.7273 48.4167 41.2258 49.4136 42.2227C50.4106 43.2197 50.9091 44.4182 50.9091 45.8182C50.9091 47.1758 50.4106 48.3636 49.4136 49.3818C48.4167 50.4 47.2182 50.9091 45.8182 50.9091ZM10.1818 50.9091C8.82424 50.9091 7.63636 50.4 6.61818 49.3818C5.6 48.3636 5.09091 47.1758 5.09091 45.8182C5.09091 44.4182 5.6 43.2197 6.61818 42.2227C7.63636 41.2258 8.82424 40.7273 10.1818 40.7273C11.5818 40.7273 12.7803 41.2258 13.7773 42.2227C14.7742 43.2197 15.2727 44.4182 15.2727 45.8182C15.2727 47.1758 14.7742 48.3636 13.7773 49.3818C12.7803 50.4 11.5818 50.9091 10.1818 50.9091Z" fill="#2C4E80"/>
</svg>
